<svg preserveAspectRatio="none" width="100%" height="100%" overflow="visible" style="display: block;" viewBox="0 0 34.9054 20.7514" fill="none" xmlns="http://www.w3.org/2000/svg">
<g id="Group">
<path id="Vector" d="M34.8073 10.5501L29.8384 13.4787C29.7775 13.5144 29.7032 13.5144 29.6423 13.4787L24.6734 10.5501C24.5427 10.473 24.5427 10.2809 24.6734 10.2038L29.6423 7.27289C29.7032 7.23722 29.7775 7.23722 29.8384 7.27289L34.8073 10.2038C34.938 10.2809 34.938 10.473 34.8073 10.5501Z" fill="var(--fill-0, #0081A6)"/>
<path id="Vector_2" d="M22.518 3.30399L17.5491 6.23256C17.4882 6.26824 17.4139 6.26824 17.353 6.23256L12.3863 3.30399C12.2556 3.2269 12.2556 3.03473 12.3863 2.95763L17.3541 0.0267564C17.415 -0.00891575 17.4893 -0.00891575 17.5502 0.0267564L22.5191 2.95763C22.6498 3.03473 22.6498 3.2269 22.5191 3.30399H22.518Z" fill="var(--fill-0, #0081A6)"/>
<path id="Vector_3" d="M28.6626 14.1725L23.6937 17.1034C23.6328 17.1391 23.5585 17.1391 23.4976 17.1034L18.5287 14.1725C18.398 14.0954 18.398 13.9033 18.5287 13.8262L23.4976 10.8976C23.5585 10.8619 23.6328 10.8619 23.6937 10.8976L28.6626 13.8262C28.7933 13.9033 28.7933 14.0954 28.6626 14.1725Z" fill="var(--fill-0, #0081A6)"/>
<path id="Vector_4" d="M16.3742 6.92645L11.4076 9.85732C11.3467 9.89299 11.2723 9.89299 11.2115 9.85732L6.24257 6.92645C6.11187 6.84935 6.11187 6.65718 6.24257 6.58008L11.2115 3.65151C11.2723 3.61584 11.3467 3.61584 11.4076 3.65151L16.3742 6.58008C16.5049 6.65718 16.5049 6.84935 16.3742 6.92645Z" fill="var(--fill-0, #0081A6)"/>
<path id="Vector_5" d="M10.2308 10.5501L5.26189 13.4787C5.20104 13.5144 5.12668 13.5144 5.06583 13.4787L0.0980266 10.5501C-0.0326755 10.473 -0.0326755 10.2809 0.0980266 10.2038L5.06696 7.27289C5.1278 7.23722 5.20217 7.23722 5.26301 7.27289L10.2319 10.2038C10.3626 10.2809 10.3626 10.473 10.2319 10.5501H10.2308Z" fill="var(--fill-0, #0081A6)"/>
<path id="Vector_6" d="M22.518 17.7961L17.5491 20.7247C17.4882 20.7603 17.4139 20.7603 17.353 20.7247L12.3863 17.7961C12.2556 17.719 12.2556 17.5268 12.3863 17.4497L17.353 14.5189C17.4139 14.4832 17.4882 14.4832 17.5491 14.5189L22.518 17.4497C22.6487 17.5268 22.6487 17.719 22.518 17.7961Z" fill="var(--fill-0, #0081A6)"/>
</g>
</svg>
