<svg preserveAspectRatio="xMidYMid meet" width="100%" height="100%" overflow="visible" style="display: block;" viewBox="0 0 34.9054 20.7515" fill="none" xmlns="http://www.w3.org/2000/svg">
<g id="Group">
<path id="Vector" d="M34.8074 10.5501L29.8385 13.4787C29.7776 13.5143 29.7032 13.5143 29.6424 13.4787L24.6735 10.5501C24.5428 10.473 24.5428 10.2808 24.6735 10.2037L29.6424 7.27285C29.7032 7.23718 29.7776 7.23718 29.8385 7.27285L34.8074 10.2037C34.9381 10.2808 34.9381 10.473 34.8074 10.5501Z" fill="var(--fill-0, #0081A6)"/>
<path id="Vector_2" d="M22.518 3.30399L17.549 6.23256C17.4882 6.26824 17.4138 6.26824 17.353 6.23256L12.3863 3.30399C12.2556 3.2269 12.2556 3.03473 12.3863 2.95763L17.3541 0.0267573C17.415 -0.00891486 17.4893 -0.00891486 17.5502 0.0267573L22.5191 2.95763C22.6498 3.03473 22.6498 3.2269 22.5191 3.30399H22.518Z" fill="var(--fill-0, #0081A6)"/>
<path id="Vector_3" d="M28.6631 14.1725L23.6942 17.1034C23.6333 17.1391 23.559 17.1391 23.4981 17.1034L18.5292 14.1725C18.3985 14.0954 18.3985 13.9033 18.5292 13.8262L23.4981 10.8976C23.559 10.8619 23.6333 10.8619 23.6942 10.8976L28.6631 13.8262C28.7938 13.9033 28.7938 14.0954 28.6631 14.1725Z" fill="var(--fill-0, #0081A6)"/>
<path id="Vector_4" d="M16.3737 6.92645L11.4071 9.85732C11.3462 9.89299 11.2718 9.89299 11.211 9.85732L6.24207 6.92645C6.11137 6.84935 6.11137 6.65718 6.24207 6.58008L11.211 3.65151C11.2718 3.61584 11.3462 3.61584 11.4071 3.65151L16.3737 6.58008C16.5044 6.65718 16.5044 6.84935 16.3737 6.92645Z" fill="var(--fill-0, #0081A6)"/>
<path id="Vector_5" d="M10.2308 10.5501L5.26189 13.4787C5.20104 13.5143 5.12668 13.5143 5.06583 13.4787L0.0980266 10.5501C-0.0326755 10.473 -0.0326755 10.2808 0.0980266 10.2037L5.06696 7.27285C5.1278 7.23718 5.20217 7.23718 5.26301 7.27285L10.2319 10.2037C10.3626 10.2808 10.3626 10.473 10.2319 10.5501H10.2308Z" fill="var(--fill-0, #0081A6)"/>
<path id="Vector_6" d="M22.518 17.7962L17.5491 20.7248C17.4882 20.7604 17.4139 20.7604 17.353 20.7248L12.3864 17.7962C12.2557 17.7191 12.2557 17.5269 12.3864 17.4498L17.353 14.5189C17.4139 14.4833 17.4882 14.4833 17.5491 14.5189L22.518 17.4498C22.6487 17.5269 22.6487 17.7191 22.518 17.7962Z" fill="var(--fill-0, #0081A6)"/>
</g>
</svg>
