<svg preserveAspectRatio="none" width="100%" height="100%" overflow="visible" style="display: block;" viewBox="0 0 89.7292 16.3449" fill="none" xmlns="http://www.w3.org/2000/svg">
<g id="Group">
<path id="Vector" d="M0.555483 16.1169C0.392105 16.1169 0.259151 16.0639 0.155491 15.9581C0.0518307 15.8522 0 15.7164 0 15.5496V0.795086C0 0.628232 0.0518307 0.492447 0.155491 0.386582C0.259151 0.280716 0.392105 0.227783 0.555483 0.227783H3.42304C3.58642 0.227783 3.71937 0.280716 3.82304 0.386582C3.9267 0.492447 3.97853 0.628232 3.97853 0.795086V6.26559H9.46801V0.795086C9.46801 0.628232 9.51984 0.492447 9.62351 0.386582C9.72717 0.280716 9.86012 0.227783 10.0235 0.227783H12.8911C13.0544 0.227783 13.1874 0.280716 13.291 0.386582C13.3947 0.492447 13.4465 0.628232 13.4465 0.795086V15.5496C13.4465 15.7164 13.3947 15.8522 13.291 15.9581C13.1874 16.0639 13.0544 16.1169 12.8911 16.1169H10.0235C9.86012 16.1169 9.72717 16.0639 9.62351 15.9581C9.51984 15.8522 9.46801 15.7164 9.46801 15.5496V9.89724H3.97853V15.5496C3.97853 15.7164 3.9267 15.8522 3.82304 15.9581C3.71937 16.0639 3.58529 16.1169 3.42304 16.1169H0.555483Z" fill="var(--fill-0, #D51414)"/>
<path id="Vector_2" d="M19.2265 16.3448C18.4265 16.3448 17.7111 16.1895 17.0812 15.8799C16.4514 15.5704 15.9511 15.1504 15.5804 14.6199C15.2097 14.0906 15.0249 13.4922 15.0249 12.8271C15.0249 11.7523 15.4542 10.9019 16.3139 10.2736C17.1736 9.64536 18.3139 9.21844 19.7369 8.9906L22.5155 8.55908V8.24148C22.5155 7.6972 22.4039 7.28064 22.182 6.99296C21.96 6.70528 21.5521 6.56144 20.9595 6.56144C20.5448 6.56144 20.2068 6.64429 19.9476 6.81115C19.6885 6.978 19.4845 7.20469 19.3369 7.49237C19.204 7.68914 19.0181 7.7881 18.7815 7.7881H16.2925C16.1291 7.7881 16.004 7.73862 15.915 7.64081C15.826 7.543 15.7888 7.42563 15.8035 7.28869C15.8035 7.01597 15.9038 6.70183 16.1032 6.34626C16.3038 5.99068 16.6102 5.63857 17.026 5.29105C17.4406 4.94353 17.9736 4.65585 18.626 4.42801C19.2783 4.20132 20.0626 4.0874 20.982 4.0874C21.9014 4.0874 22.7679 4.20132 23.4496 4.42801C24.1312 4.6547 24.6833 4.9723 25.1059 5.38081C25.5284 5.78931 25.8427 6.27031 26.0501 6.82265C26.2574 7.37499 26.3611 7.98372 26.3611 8.64999V15.5508C26.3611 15.7177 26.3058 15.8535 26.1943 15.9593C26.0827 16.0652 25.9532 16.1181 25.8056 16.1181H23.2276C23.0642 16.1181 22.9313 16.0652 22.8276 15.9593C22.7239 15.8535 22.6721 15.7177 22.6721 15.5508V14.7568C22.4794 15.0445 22.2203 15.3092 21.8946 15.5508C21.569 15.7925 21.1871 15.9858 20.7499 16.1296C20.3127 16.2735 19.8057 16.3448 19.2276 16.3448H19.2265ZM20.271 13.7569C20.7003 13.7569 21.089 13.6625 21.4383 13.4726C21.7865 13.2839 22.0603 12.9882 22.2608 12.5877C22.4614 12.1873 22.5606 11.6833 22.5606 11.078V10.7604L20.671 11.101C19.9747 11.2218 19.4665 11.4071 19.1488 11.6568C18.8299 11.9065 18.671 12.1976 18.671 12.5313C18.671 12.7891 18.7454 13.0077 18.893 13.1896C19.0406 13.3714 19.2333 13.5118 19.471 13.6096C19.7076 13.7085 19.9747 13.7569 20.271 13.7569Z" fill="var(--fill-0, #D51414)"/>
<path id="Vector_3" d="M28.8726 16.117C28.7092 16.117 28.5763 16.0641 28.4726 15.9582C28.369 15.8524 28.3171 15.7166 28.3171 15.5497V4.88029C28.3171 4.72955 28.369 4.59607 28.4726 4.4833C28.5763 4.36937 28.7092 4.31299 28.8726 4.31299H31.4292C31.5926 4.31299 31.7255 4.36937 31.8292 4.4833C31.9329 4.59722 31.9847 4.72955 31.9847 4.88029V5.78821C32.3847 5.31987 32.8624 4.95624 33.4179 4.69848C33.9734 4.44187 34.5999 4.31299 35.2962 4.31299H36.2742C36.4218 4.31299 36.5525 4.36592 36.6629 4.47179C36.7745 4.57765 36.8297 4.71459 36.8297 4.88029V7.21854C36.8297 7.37044 36.7745 7.50277 36.6629 7.61554C36.5514 7.72946 36.4218 7.78585 36.2742 7.78585H34.1176C33.5103 7.78585 33.0393 7.95615 32.7058 8.29677C32.3723 8.63738 32.2055 9.11838 32.2055 9.73861V15.5497C32.2055 15.7166 32.1503 15.8524 32.0388 15.9582C31.9272 16.0641 31.7909 16.117 31.6275 16.117H28.8715H28.8726Z" fill="var(--fill-0, #D51414)"/>
<path id="Vector_4" d="M42.053 16.3448C41.3421 16.3448 40.701 16.2275 40.1308 15.9927C39.5607 15.758 39.0717 15.4104 38.6638 14.949C38.2559 14.4876 37.9416 13.9272 37.7196 13.269C37.4976 12.6108 37.3714 11.8582 37.3421 11.0101C37.3275 10.7075 37.3196 10.4394 37.3196 10.2046C37.3196 9.96987 37.3264 9.70865 37.3421 9.42097C37.3714 8.60397 37.4976 7.86981 37.7196 7.21966C37.9416 6.5695 38.2525 6.0091 38.6525 5.53961C39.0525 5.07127 39.5415 4.7111 40.1196 4.46139C40.6976 4.21169 41.3421 4.08741 42.053 4.08741C42.764 4.08741 43.431 4.21284 43.964 4.46139C44.4969 4.7111 44.9488 5.0333 45.3195 5.42569V0.567371C45.3195 0.400517 45.3713 0.264733 45.475 0.158867C45.5786 0.0530009 45.7116 6.83024e-05 45.875 6.83024e-05H48.587C48.7346 6.83024e-05 48.8653 0.0530009 48.9757 0.158867C49.0873 0.264733 49.1425 0.400517 49.1425 0.567371V15.5497C49.1425 15.7165 49.0873 15.8523 48.9757 15.9582C48.8642 16.0641 48.7346 16.117 48.587 16.117H46.0755C45.9121 16.117 45.7792 16.0641 45.6755 15.9582C45.5719 15.8523 45.52 15.7165 45.52 15.5497V14.8236C45.164 15.2632 44.7054 15.6256 44.142 15.9133C43.5787 16.201 42.8823 16.3448 42.053 16.3448ZM43.253 13.3035C43.7567 13.3035 44.1533 13.1942 44.4417 12.9744C44.7302 12.7557 44.9454 12.4715 45.0862 12.1229C45.2271 11.7753 45.3048 11.3968 45.3195 10.9883C45.3341 10.6856 45.342 10.3979 45.342 10.1252C45.342 9.85249 45.3341 9.57287 45.3195 9.28519C45.3048 8.90661 45.2226 8.55564 45.075 8.22999C44.9262 7.90433 44.7043 7.63967 44.4079 7.43599C44.1116 7.23116 43.7263 7.1299 43.2519 7.1299C42.7775 7.1299 42.3742 7.23577 42.0846 7.4475C41.795 7.65923 41.5922 7.94691 41.4739 8.31054C41.3556 8.67416 41.2812 9.07461 41.2519 9.51303C41.208 9.98252 41.208 10.452 41.2519 10.9204C41.2812 11.3599 41.3556 11.7604 41.4739 12.1229C41.5922 12.4865 41.7961 12.7742 42.0846 12.9859C42.373 13.1976 42.7629 13.3035 43.2519 13.3035H43.253Z" fill="var(--fill-0, #D51414)"/>
<path id="Vector_5" d="M52.0103 16.1169C51.8469 16.1169 51.714 16.0639 51.6103 15.9581C51.5067 15.8522 51.4548 15.7164 51.4548 15.5496V0.795086C51.4548 0.628232 51.5067 0.492447 51.6103 0.386582C51.714 0.280716 51.8469 0.227783 52.0103 0.227783H62.213C62.3763 0.227783 62.5127 0.280716 62.6242 0.386582C62.7358 0.492447 62.791 0.628232 62.791 0.795086V3.08731C62.791 3.25416 62.7358 3.38995 62.6242 3.49581C62.5127 3.60168 62.3763 3.65461 62.213 3.65461H55.3669V6.99169H61.7679C61.9313 6.99169 62.0676 7.04807 62.1792 7.16199C62.2907 7.27591 62.3459 7.41515 62.3459 7.582V9.85236C62.3459 10.0043 62.2907 10.1366 62.1792 10.2494C62.0676 10.3633 61.9313 10.4197 61.7679 10.4197H55.3669V15.5496C55.3669 15.7164 55.315 15.8522 55.2114 15.9581C55.1077 16.0639 54.9736 16.1169 54.8114 16.1169H52.0103Z" fill="var(--fill-0, #0081A6)"/>
<path id="Vector_6" d="M68.5025 16.3449C67.6574 16.3449 66.9059 16.1482 66.2467 15.7546C65.5876 15.3611 65.0727 14.7823 64.702 14.0182C64.3313 13.2541 64.1465 12.3197 64.1465 11.215V4.88151C64.1465 4.71466 64.1983 4.57887 64.302 4.47301C64.4056 4.36714 64.5386 4.31421 64.702 4.31421H67.4805C67.6439 4.31421 67.7768 4.36714 67.8805 4.47301C67.9842 4.57887 68.036 4.71581 68.036 4.88151V11.0781C68.036 12.5614 68.6884 13.3024 69.992 13.3024C70.5993 13.3024 71.085 13.1091 71.4478 12.7236C71.8106 12.3381 71.992 11.7893 71.992 11.0781V4.88151C71.992 4.71466 72.0438 4.57887 72.1475 4.47301C72.2511 4.36714 72.3841 4.31421 72.5475 4.31421H75.326C75.4894 4.31421 75.6224 4.36714 75.726 4.47301C75.8297 4.57887 75.8815 4.71581 75.8815 4.88151V15.5509C75.8815 15.7178 75.8297 15.8536 75.726 15.9594C75.6224 16.0653 75.4894 16.1182 75.326 16.1182H72.748C72.5993 16.1182 72.4697 16.0653 72.3593 15.9594C72.2478 15.8536 72.1926 15.7178 72.1926 15.5509V14.6879C71.8072 15.2322 71.3069 15.6453 70.6917 15.9249C70.0765 16.2046 69.3475 16.3449 68.5025 16.3449Z" fill="var(--fill-0, #0081A6)"/>
<path id="Vector_7" d="M78.5045 16.1172C78.3411 16.1172 78.2081 16.0642 78.1045 15.9584C78.0008 15.8525 77.949 15.7167 77.949 15.5499V4.88042C77.949 4.71357 78.0008 4.57778 78.1045 4.47192C78.2081 4.36605 78.3411 4.31312 78.5045 4.31312H81.061C81.2244 4.31312 81.3574 4.36605 81.461 4.47192C81.5647 4.57778 81.6165 4.71472 81.6165 4.88042V5.74346C82.0019 5.27512 82.5055 4.88042 83.1275 4.56282C83.7495 4.24522 84.483 4.08643 85.328 4.08643C86.1731 4.08643 86.9471 4.2832 87.6063 4.67674C88.2654 5.07029 88.7849 5.6491 89.1623 6.41317C89.5398 7.17725 89.7291 8.11163 89.7291 9.21632V15.5499C89.7291 15.7167 89.6739 15.8525 89.5623 15.9584C89.4508 16.0642 89.3212 16.1172 89.1736 16.1172H86.3725C86.2238 16.1172 86.0942 16.0642 85.9838 15.9584C85.8722 15.8525 85.817 15.7167 85.817 15.5499V9.35325C85.817 8.64211 85.6503 8.09322 85.3167 7.70773C84.9832 7.32224 84.4908 7.12892 83.8385 7.12892C83.2311 7.12892 82.7455 7.32224 82.3827 7.70773C82.0199 8.09322 81.8385 8.64211 81.8385 9.35325V15.5499C81.8385 15.7167 81.7833 15.8525 81.6717 15.9584C81.5602 16.0642 81.4306 16.1172 81.283 16.1172H78.5045Z" fill="var(--fill-0, #0081A6)"/>
</g>
</svg>
