<svg preserveAspectRatio="none" width="100%" height="100%" overflow="visible" style="display: block;" viewBox="0 0 17.6502 30.9268" fill="none" xmlns="http://www.w3.org/2000/svg">
<g id="Group">
<path id="Vector" d="M17.6501 0.20085V6.06029C17.6501 6.13164 17.613 6.19838 17.5521 6.23405L12.5832 9.16492C12.4525 9.24202 12.2891 9.14536 12.2891 8.99116V3.13172C12.2891 3.06038 12.3263 2.99364 12.3871 2.95796L17.3561 0.0270926C17.4868 -0.0500053 17.6501 0.0466542 17.6501 0.20085Z" fill="var(--fill-0, #FFAA00)"/>
<path id="Vector_2" d="M11.5056 11.0706V16.93C11.5056 17.0014 11.4684 17.0681 11.4076 17.1038L6.43866 20.0324C6.30795 20.1095 6.14458 20.0128 6.14458 19.8586V13.9992C6.14458 13.9278 6.18176 13.8611 6.2426 13.8254L11.2115 10.8968C11.3422 10.8197 11.5056 10.9164 11.5056 11.0706Z" fill="var(--fill-0, #FFAA00)"/>
<path id="Vector_3" d="M11.5056 3.82439V9.68383C11.5056 9.75517 11.4684 9.82191 11.4076 9.85759L6.43866 12.7862C6.30795 12.8633 6.14458 12.7666 6.14458 12.6124V6.75296C6.14458 6.68161 6.18176 6.61487 6.2426 6.5792L11.2115 3.65063C11.3422 3.57353 11.5056 3.67019 11.5056 3.82439Z" fill="var(--fill-0, #FFAA00)"/>
<path id="Vector_4" d="M5.36104 21.9379V27.7974C5.36104 27.8687 5.32385 27.9355 5.26301 27.9711L0.29408 30.8997C0.163378 30.9768 0 30.8801 0 30.7259V24.8688C0 24.7975 0.0371819 24.7307 0.098026 24.695L5.06696 21.7642C5.19766 21.6871 5.36104 21.7837 5.36104 21.9379Z" fill="var(--fill-0, #FFAA00)"/>
<path id="Vector_5" d="M5.36104 14.693V20.5524C5.36104 20.6238 5.32385 20.6905 5.26301 20.7262L0.29408 23.657C0.163378 23.7341 0 23.6375 0 23.4833V17.6238C0 17.5525 0.0371819 17.4858 0.098026 17.4501L5.06696 14.5192C5.19766 14.4421 5.36104 14.5388 5.36104 14.693Z" fill="var(--fill-0, #FFAA00)"/>
<path id="Vector_6" d="M5.36104 7.447V13.3064C5.36104 13.3778 5.32385 13.4445 5.26301 13.4802L0.29408 16.4111C0.163378 16.4882 0 16.3915 0 16.2373V10.3779C0 10.3065 0.0371819 10.2398 0.098026 10.2041L5.06696 7.27325C5.19766 7.19615 5.36104 7.29281 5.36104 7.447Z" fill="var(--fill-0, #FFAA00)"/>
</g>
</svg>
