<svg preserveAspectRatio="none" width="100%" height="100%" overflow="visible" style="display: block;" viewBox="0 0 17.6479 30.9268" fill="none" xmlns="http://www.w3.org/2000/svg">
<g id="Group">
<path id="Vector" d="M17.6478 17.6226V23.4821C17.6478 23.6363 17.4845 23.7329 17.3538 23.6558L12.3871 20.725C12.3262 20.6893 12.2891 20.6237 12.2891 20.5512V14.6918C12.2891 14.5376 12.4524 14.4409 12.5831 14.518L17.5498 17.4489C17.6107 17.4845 17.6478 17.5501 17.6478 17.6226Z" fill="var(--fill-0, #D51414)"/>
<path id="Vector_2" d="M17.6478 24.8688V30.7259C17.6478 30.8801 17.4845 30.9768 17.3538 30.8997L12.3871 27.9711C12.3262 27.9354 12.2891 27.8698 12.2891 27.7974V21.9379C12.2891 21.7837 12.4524 21.6871 12.5831 21.7642L17.5498 24.695C17.6107 24.7307 17.6478 24.7963 17.6478 24.8688Z" fill="var(--fill-0, #D51414)"/>
<path id="Vector_3" d="M17.6478 10.3779V16.2373C17.6478 16.3915 17.4845 16.4882 17.3538 16.4111L12.3871 13.4802C12.3262 13.4445 12.2891 13.3789 12.2891 13.3064V7.447C12.2891 7.29281 12.4524 7.19615 12.5831 7.27325L17.5498 10.2041C17.6107 10.2398 17.6478 10.3054 17.6478 10.3779Z" fill="var(--fill-0, #D51414)"/>
<path id="Vector_4" d="M11.5046 13.9992V19.8586C11.5046 20.0128 11.3412 20.1095 11.2105 20.0324L6.24158 17.1038C6.18074 17.0681 6.14355 17.0025 6.14355 16.93V11.0706C6.14355 10.9164 6.30693 10.8197 6.43763 10.8968L11.4066 13.8254C11.4674 13.8611 11.5046 13.9267 11.5046 13.9992Z" fill="var(--fill-0, #D51414)"/>
<path id="Vector_5" d="M5.36104 17.6226V23.4821C5.36104 23.6363 5.19766 23.7329 5.06696 23.6558L0.0980266 20.725C0.0371825 20.6893 0 20.6237 0 20.5512V14.6918C0 14.5376 0.163378 14.4409 0.29408 14.518L5.26301 17.4489C5.32386 17.4846 5.36104 17.5501 5.36104 17.6226Z" fill="var(--fill-0, #D51414)"/>
<path id="Vector_6" d="M5.36104 10.3777V16.2371C5.36104 16.3913 5.19766 16.488 5.06696 16.4109L0.0980266 13.4789C0.0371825 13.4432 0 13.3776 0 13.3051V7.44566C0 7.29146 0.163378 7.1948 0.29408 7.2719L5.26301 10.2028C5.32386 10.2384 5.36104 10.304 5.36104 10.3765V10.3777Z" fill="var(--fill-0, #D51414)"/>
<path id="Vector_7" d="M5.36104 3.13172V8.99116C5.36104 9.14536 5.19766 9.24202 5.06696 9.16492L0.0980266 6.23405C0.0371825 6.19838 0 6.13279 0 6.06029V0.20085C0 0.0466542 0.163378 -0.0500053 0.29408 0.0270926L5.26301 2.95796C5.32386 2.99364 5.36104 3.05923 5.36104 3.13172Z" fill="var(--fill-0, #D51414)"/>
</g>
</svg>
