<svg preserveAspectRatio="xMidYMid meet" width="100%" height="100%" overflow="visible" style="display: block;" viewBox="0 0 17.6481 30.9268" fill="none" xmlns="http://www.w3.org/2000/svg">
<g id="Group">
<path id="Vector" d="M17.6481 17.6227V23.4821C17.6481 23.6363 17.4847 23.733 17.354 23.6559L12.3873 20.725C12.3265 20.6893 12.2893 20.6238 12.2893 20.5513V14.6918C12.2893 14.5376 12.4527 14.441 12.5834 14.5181L17.5501 17.4489C17.6109 17.4846 17.6481 17.5502 17.6481 17.6227Z" fill="var(--fill-0, #D51414)"/>
<path id="Vector_2" d="M17.6481 24.8688V30.7259C17.6481 30.8801 17.4847 30.9768 17.354 30.8997L12.3873 27.9711C12.3265 27.9354 12.2893 27.8698 12.2893 27.7974V21.9379C12.2893 21.7837 12.4527 21.6871 12.5834 21.7642L17.5501 24.695C17.6109 24.7307 17.6481 24.7963 17.6481 24.8688Z" fill="var(--fill-0, #D51414)"/>
<path id="Vector_3" d="M17.6481 10.3778V16.2373C17.6481 16.3915 17.4847 16.4881 17.354 16.411L12.3873 13.4801C12.3265 13.4445 12.2893 13.3789 12.2893 13.3064V7.44694C12.2893 7.29275 12.4527 7.19609 12.5834 7.27319L17.5501 10.2041C17.6109 10.2397 17.6481 10.3053 17.6481 10.3778Z" fill="var(--fill-0, #D51414)"/>
<path id="Vector_4" d="M11.5051 13.9993V19.8587C11.5051 20.0129 11.3417 20.1096 11.211 20.0325L6.24207 17.1039C6.18123 17.0683 6.14404 17.0027 6.14404 16.9302V11.0707C6.14404 10.9165 6.30742 10.8199 6.43812 10.897L11.4071 13.8255C11.4679 13.8612 11.5051 13.9268 11.5051 13.9993Z" fill="var(--fill-0, #D51414)"/>
<path id="Vector_5" d="M5.36104 17.6227V23.4821C5.36104 23.6363 5.19766 23.733 5.06696 23.6559L0.0980266 20.725C0.0371825 20.6893 0 20.6238 0 20.5513V14.6918C0 14.5376 0.163378 14.441 0.29408 14.5181L5.26301 17.4489C5.32386 17.4846 5.36104 17.5502 5.36104 17.6227Z" fill="var(--fill-0, #D51414)"/>
<path id="Vector_6" d="M5.36104 10.3777V16.2372C5.36104 16.3914 5.19766 16.488 5.06696 16.4109L0.0980266 13.4789C0.0371825 13.4433 0 13.3777 0 13.3052V7.44572C0 7.29153 0.163378 7.19487 0.29408 7.27197L5.26301 10.2028C5.32386 10.2385 5.36104 10.3041 5.36104 10.3766V10.3777Z" fill="var(--fill-0, #D51414)"/>
<path id="Vector_7" d="M5.36104 3.13172V8.99116C5.36104 9.14536 5.19766 9.24202 5.06696 9.16492L0.0980266 6.23405C0.0371825 6.19838 0 6.13279 0 6.06029V0.20085C0 0.0466542 0.163378 -0.0500053 0.29408 0.0270926L5.26301 2.95796C5.32386 2.99364 5.36104 3.05923 5.36104 3.13172Z" fill="var(--fill-0, #D51414)"/>
</g>
</svg>
