<svg preserveAspectRatio="none" width="100%" height="100%" overflow="visible" style="display: block;" viewBox="0 0 17.6504 30.9268" fill="none" xmlns="http://www.w3.org/2000/svg">
<g id="Group">
<path id="Vector" d="M17.6504 0.20085V6.06029C17.6504 6.13164 17.6132 6.19838 17.5524 6.23405L12.5835 9.16492C12.4528 9.24202 12.2894 9.14536 12.2894 8.99116V3.13172C12.2894 3.06038 12.3266 2.99364 12.3874 2.95796L17.3563 0.0270926C17.487 -0.0500053 17.6504 0.0466542 17.6504 0.20085Z" fill="var(--fill-0, #FFAA00)"/>
<path id="Vector_2" d="M11.5051 11.0707V16.9302C11.5051 17.0015 11.4679 17.0683 11.4071 17.1039L6.43812 20.0325C6.30742 20.1096 6.14404 20.0129 6.14404 19.8588V13.9993C6.14404 13.928 6.18122 13.8612 6.24207 13.8256L11.211 10.897C11.3417 10.8199 11.5051 10.9165 11.5051 11.0707Z" fill="var(--fill-0, #FFAA00)"/>
<path id="Vector_3" d="M11.5051 3.8244V9.68384C11.5051 9.75519 11.4679 9.82193 11.4071 9.8576L6.43812 12.7862C6.30742 12.8633 6.14404 12.7666 6.14404 12.6124V6.75297C6.14404 6.68163 6.18122 6.61489 6.24207 6.57921L11.211 3.65064C11.3417 3.57354 11.5051 3.67021 11.5051 3.8244Z" fill="var(--fill-0, #FFAA00)"/>
<path id="Vector_4" d="M5.36104 21.9379V27.7974C5.36104 27.8687 5.32385 27.9355 5.26301 27.9711L0.29408 30.8997C0.163378 30.9768 0 30.8801 0 30.7259V24.8688C0 24.7975 0.0371819 24.7307 0.098026 24.695L5.06696 21.7642C5.19766 21.6871 5.36104 21.7837 5.36104 21.9379Z" fill="var(--fill-0, #FFAA00)"/>
<path id="Vector_5" d="M5.36104 14.6931V20.5525C5.36104 20.6238 5.32385 20.6906 5.26301 20.7263L0.29408 23.6571C0.163378 23.7342 0 23.6376 0 23.4834V17.6239C0 17.5526 0.0371819 17.4858 0.098026 17.4502L5.06696 14.5193C5.19766 14.4422 5.36104 14.5389 5.36104 14.6931Z" fill="var(--fill-0, #FFAA00)"/>
<path id="Vector_6" d="M5.36104 7.44696V13.3064C5.36104 13.3777 5.32385 13.4445 5.26301 13.4802L0.29408 16.411C0.163378 16.4881 0 16.3915 0 16.2373V10.3778C0 10.3065 0.0371819 10.2397 0.098026 10.2041L5.06696 7.2732C5.19766 7.1961 5.36104 7.29276 5.36104 7.44696Z" fill="var(--fill-0, #FFAA00)"/>
</g>
</svg>
